<svg width="30" height="30" viewBox="0 0 30 30" fill="none" xmlns="http://www.w3.org/2000/svg">
<rect width="30" height="30" rx="7" fill="url(#paint0_linear_99_10836)"/>
<path fill-rule="evenodd" clip-rule="evenodd" d="M9.64844 23.5V8.49346L12.7857 8.10131V9.56536C13.5177 8.51961 14.7465 7.68301 15.8968 7.55229C15.9977 7.54453 16.0916 7.53677 16.1773 7.5297C16.3803 7.51293 16.5369 7.5 16.6288 7.5C19.5046 7.5 21.6484 9.8268 21.6484 13.3562C21.6484 17.2255 19.1648 19.9444 15.9752 20.049C14.9295 20.0752 13.6484 19.4477 12.7857 18.5065V22.0621C12.7857 22.8726 12.1582 23.5 11.3478 23.5H9.64844ZM19.0342 14.193C19.0692 14.1308 19.0875 14.0606 19.0873 13.9892C19.0875 13.9179 19.0692 13.8477 19.0342 13.7855C18.9992 13.7233 18.9487 13.6712 18.8877 13.6343L15.1023 11.3186C15.0385 11.2795 14.9654 11.2582 14.8906 11.2568C14.8157 11.2554 14.7419 11.274 14.6767 11.3107C14.6121 11.3469 14.5583 11.3995 14.5208 11.4633C14.4833 11.5272 14.4635 11.5998 14.4634 11.6738V16.3046C14.4635 16.3786 14.4833 16.4513 14.5208 16.5151C14.5583 16.5789 14.6121 16.6316 14.6767 16.6677C14.7419 16.7044 14.8157 16.723 14.8906 16.7216C14.9654 16.7202 15.0385 16.6989 15.1023 16.6598L18.8877 14.3442C18.9487 14.3073 18.9992 14.2552 19.0342 14.193Z" fill="#F8FAFC"/>
<defs>
<linearGradient id="paint0_linear_99_10836" x1="-1.92884e-07" y1="22.9093" x2="30" y2="7.09066" gradientUnits="userSpaceOnUse">
<stop stop-color="#8E2DE2"/>
<stop offset="1" stop-color="#4F46E5"/>
</linearGradient>
</defs>
</svg>
