<svg width="30" height="30" viewBox="0 0 30 30" fill="none" xmlns="http://www.w3.org/2000/svg">
<rect width="30" height="30" rx="7" fill="url(#paint0_linear_134_2804)"/>
<path fill-rule="evenodd" clip-rule="evenodd" d="M9.64819 23.5V8.49346L12.7854 8.10131V9.56536C13.5175 8.51961 14.7462 7.68301 15.8966 7.55229C15.9974 7.54453 16.0914 7.53677 16.177 7.5297C16.3801 7.51293 16.5367 7.5 16.6286 7.5C19.5044 7.5 21.6482 9.8268 21.6482 13.3562C21.6482 17.2255 19.1645 19.9444 15.975 20.049C14.9292 20.0752 13.6482 19.4477 12.7854 18.5065V22.0621C12.7854 22.8726 12.158 23.5 11.3475 23.5H9.64819ZM19.034 14.193C19.069 14.1308 19.0873 14.0606 19.0871 13.9892C19.0873 13.9179 19.069 13.8477 19.034 13.7855C18.999 13.7233 18.9485 13.6712 18.8874 13.6343L15.1021 11.3186C15.0382 11.2795 14.9651 11.2582 14.8903 11.2568C14.8155 11.2554 14.7417 11.274 14.6764 11.3107C14.6118 11.3469 14.558 11.3995 14.5205 11.4633C14.483 11.5272 14.4632 11.5998 14.4631 11.6738V16.3046C14.4632 16.3786 14.483 16.4513 14.5205 16.5151C14.558 16.5789 14.6118 16.6316 14.6764 16.6677C14.7417 16.7044 14.8155 16.723 14.8903 16.7216C14.9651 16.7202 15.0382 16.6989 15.1021 16.6598L18.8874 14.3442C18.9485 14.3073 18.999 14.2552 19.034 14.193Z" fill="#F8FAFC"/>
<defs>
<linearGradient id="paint0_linear_134_2804" x1="-1.92884e-07" y1="22.9093" x2="30" y2="7.09066" gradientUnits="userSpaceOnUse">
<stop stop-color="#8E2DE2"/>
<stop offset="1" stop-color="#4F46E5"/>
</linearGradient>
</defs>
</svg>
